<svg width="146" height="141" viewBox="0 0 146 141" fill="none" xmlns="http://www.w3.org/2000/svg">
<path d="M112.239 63.8702H3.30762V55.1541H142.766V63.8702H121.411" stroke="#8BB91F" stroke-width="5" stroke-miterlimit="10" stroke-linecap="round" stroke-linejoin="round"/>
<path d="M142.766 63.8645V111.175" stroke="#8BB91F" stroke-width="5" stroke-miterlimit="10" stroke-linecap="round" stroke-linejoin="round"/>
<path d="M3.30762 111.175V63.8645" stroke="#8BB91F" stroke-width="5" stroke-miterlimit="10" stroke-linecap="round" stroke-linejoin="round"/>
<path d="M3.10449 76.2933C10.0772 76.2933 10.0772 79.6605 17.0499 79.6605C24.0226 79.6605 24.0226 76.2933 30.9955 76.2933C37.9682 76.2933 37.9682 79.6605 44.9406 79.6605C51.9136 79.6605 51.9136 76.2933 58.8863 76.2933C65.8587 76.2933 65.8587 79.6605 72.8314 79.6605C79.8041 79.6605 79.8041 76.2933 86.7765 76.2933C93.7494 76.2933 93.7494 79.6605 100.722 79.6605C107.695 79.6605 107.695 76.2933 114.668 76.2933C121.642 76.2933 121.642 79.6605 128.615 79.6605C135.589 79.6605 135.589 76.2933 142.562 76.2933" stroke="#8BB91F" stroke-width="5" stroke-miterlimit="10" stroke-linecap="round" stroke-linejoin="round"/>
<path d="M42.7584 111.809H142.766V137.958H3.30762V111.809H33.5863" stroke="#8BB91F" stroke-width="5" stroke-miterlimit="10" stroke-linecap="round" stroke-linejoin="round"/>
<path d="M29.4562 129.241C31.8631 129.241 33.8142 127.29 33.8142 124.883C33.8142 122.476 31.8631 120.525 29.4562 120.525C27.0493 120.525 25.0981 122.476 25.0981 124.883C25.0981 127.29 27.0493 129.241 29.4562 129.241Z" stroke="#8BB91F" stroke-width="5" stroke-miterlimit="10" stroke-linecap="round" stroke-linejoin="round"/>
<path d="M94.8273 129.241C97.2342 129.241 99.1853 127.29 99.1853 124.883C99.1853 122.476 97.2342 120.525 94.8273 120.525C92.4204 120.525 90.4692 122.476 90.4692 124.883C90.4692 127.29 92.4204 129.241 94.8273 129.241Z" stroke="#8BB91F" stroke-width="5" stroke-miterlimit="10" stroke-linecap="round" stroke-linejoin="round"/>
<path d="M97.6308 38.9521C88.8162 41.322 80.4192 38.6282 77.9785 29.8855C75.4938 20.9854 81.2119 12.3428 89.933 9.28874C111.763 1.64429 126.915 9.3732 126.915 9.3732C114.875 12.6108 113.561 34.6687 97.6308 38.9521Z" stroke="#8BB91F" stroke-width="5" stroke-miterlimit="10" stroke-linecap="round" stroke-linejoin="round"/>
<path d="M98.593 20.883C79.597 25.2982 72.9863 42.2261 72.9863 61.7283V98.0837" stroke="#8BB91F" stroke-width="5" stroke-miterlimit="10" stroke-linecap="round" stroke-linejoin="round"/>
<path d="M37.9441 11.9464C25.237 11.2109 17.2485 15.2446 17.2485 15.2446C29.276 18.5312 30.4991 40.5945 46.4121 44.943C55.2168 47.3491 63.6248 44.6893 66.1014 35.9567C68.6226 27.0666 62.9399 18.4008 54.2311 15.3113C51.771 14.4387 49.3955 13.7621 47.1161 13.2483" stroke="#8BB91F" stroke-width="5" stroke-miterlimit="10" stroke-linecap="round" stroke-linejoin="round"/>
<path d="M46.3926 27.8007L56.1949 31.9384C63.5043 35.0239 69.8638 39.9937 74.6243 46.3409" stroke="#8BB91F" stroke-width="5" stroke-miterlimit="10" stroke-linecap="round" stroke-linejoin="round"/>
<path d="M53.2559 102.941L57.8092 93.7257L72.7659 89.0076" stroke="#8BB91F" stroke-width="5" stroke-miterlimit="10" stroke-linecap="round" stroke-linejoin="round"/>
<path d="M57.8094 93.7257L48.8994 88.8525" stroke="#8BB91F" stroke-width="5" stroke-miterlimit="10" stroke-linecap="round" stroke-linejoin="round"/>
<path d="M92.5469 102.941L87.9933 93.7257L73.0366 89.0076" stroke="#8BB91F" stroke-width="5" stroke-miterlimit="10" stroke-linecap="round" stroke-linejoin="round"/>
<path d="M87.9937 93.7257L96.9036 88.8525" stroke="#8BB91F" stroke-width="5" stroke-miterlimit="10" stroke-linecap="round" stroke-linejoin="round"/>
</svg>
