<svg width="18" height="13" viewBox="0 0 18 13" fill="none" xmlns="http://www.w3.org/2000/svg">
<path d="M9.20785 3.14891L2.65714 10.7659C2.60435 10.8286 2.54168 10.8782 2.47275 10.9118C2.40381 10.9454 2.32999 10.9623 2.25556 10.9615C2.18112 10.9608 2.10755 10.9424 2.03909 10.9075C1.97064 10.8725 1.90866 10.8217 1.85675 10.758C1.80484 10.6942 1.76402 10.6188 1.73667 10.5361C1.70931 10.4533 1.69595 10.365 1.69737 10.276C1.69878 10.1871 1.71495 10.0994 1.74492 10.018C1.77489 9.93653 1.81808 9.86302 1.87199 9.80168L8.81528 1.72902C8.92038 1.60683 9.06122 1.53847 9.20785 1.53847C9.35449 1.53847 9.49533 1.60683 9.60043 1.72902L16.5437 9.80168C16.5976 9.86302 16.6408 9.93653 16.6708 10.018C16.7008 10.0994 16.7169 10.1871 16.7183 10.276C16.7198 10.365 16.7064 10.4533 16.679 10.5361C16.6517 10.6188 16.6109 10.6942 16.559 10.758C16.5071 10.8217 16.4451 10.8725 16.3766 10.9075C16.3082 10.9424 16.2346 10.9608 16.1602 10.9615C16.0857 10.9623 16.0119 10.9454 15.943 10.9118C15.874 10.8782 15.8114 10.8286 15.7586 10.7659L9.20785 3.14891Z" fill="white" stroke="white" stroke-width="2.5"/>
</svg>
