<svg width="12" height="11" viewBox="0 0 12 11" fill="none" xmlns="http://www.w3.org/2000/svg">
<path d="M5.516 6.048C5.604 6.216 5.68 6.4 5.744 6.6C5.808 6.792 5.868 6.992 5.924 7.2C5.972 6.992 6.032 6.792 6.104 6.6C6.168 6.4 6.244 6.216 6.332 6.048L8.78 1.2C8.868 1.024 8.972 0.899999 9.092 0.827999C9.212 0.755999 9.348 0.719999 9.5 0.719999H11.348L6.452 10.128L5.384 10.128L0.487999 0.719999H2.348C2.492 0.719999 2.624 0.755999 2.744 0.827999C2.864 0.899999 2.968 1.024 3.056 1.2L5.516 6.048Z" fill="black"/>
</svg>
