<svg width="16" height="16" viewBox="0 0 16 16" fill="none" xmlns="http://www.w3.org/2000/svg">
<path fill-rule="evenodd" clip-rule="evenodd" d="M12.1216 1.38064C13.3222 2.31892 14.1728 3.69092 14.3797 5.36703C14.2869 5.26163 14.1895 5.15104 14.0861 5.03872C13.7726 4.70177 13.4059 4.34063 12.9859 3.99331L12.9737 3.98467V3.96912C12.9266 3.53022 12.8231 3.03948 12.6633 2.56083C12.5248 2.14267 12.3438 1.7366 12.1201 1.38064H12.1216ZM8.42242 0.00691183C9.52107 0.0691183 10.5725 0.393974 11.4794 0.936553C11.6286 1.12836 11.764 1.32534 11.8842 1.52233C12.0927 1.86619 12.2479 2.21179 12.3635 2.56256C12.4807 2.91334 12.5583 3.26584 12.6131 3.6218L12.6268 3.70647L12.5629 3.65981C12.327 3.48356 12.0759 3.31422 11.8127 3.15698C11.5494 2.99801 11.271 2.85113 10.9788 2.71808L10.9666 2.71289L10.9606 2.7008C10.7795 2.29645 10.5193 1.85928 10.2043 1.45494C9.92279 1.0938 9.59867 0.762029 9.25021 0.506291C8.98392 0.311032 8.70241 0.146876 8.4209 0.00863979L8.42242 0.00691183ZM5.31366 0.54949C6.12319 0.209083 6.95706 0.0311032 7.77571 0C8.27026 0.198715 8.72067 0.459637 9.10413 0.753389C9.41455 0.991847 9.67475 1.25622 9.89844 1.53961C10.1221 1.82299 10.3108 2.12539 10.4797 2.43988L10.5238 2.52455L10.4402 2.49344C10.0917 2.36557 9.72497 2.2619 9.33999 2.18759C8.95501 2.11329 8.55329 2.07009 8.13483 2.06318H8.12265L8.11352 2.05281C7.81984 1.74178 7.43638 1.42729 7.01184 1.1681C6.63294 0.936553 6.22057 0.748205 5.81124 0.644528C5.6469 0.603057 5.47952 0.570226 5.31366 0.546034V0.54949ZM2.50466 2.57811C3.22137 1.78671 4.01111 1.19056 4.83281 0.772397C5.15388 0.801772 5.46278 0.858795 5.74886 0.940009C6.12166 1.04541 6.45339 1.19575 6.7562 1.37891C7.05901 1.56207 7.33443 1.77807 7.59464 2.01307L7.66007 2.07355L7.57486 2.07873C7.22792 2.1012 6.87184 2.14785 6.5036 2.22388C6.13536 2.29991 5.75646 2.40532 5.36692 2.54355L5.35627 2.54701L5.34561 2.54355C5.00628 2.4226 4.59847 2.3362 4.17545 2.31028C3.79808 2.28782 3.40853 2.31028 3.04942 2.40186C2.86225 2.44852 2.67965 2.50899 2.50314 2.57811H2.50466ZM0.0334768 7.22286C0.0228252 7.23841 0.0106517 7.25396 0 7.27124C0.532583 5.48454 1.28581 4.06416 2.17142 2.96863C2.48488 2.82348 2.79987 2.71808 3.10268 2.65069C3.41006 2.58157 3.70221 2.5591 3.98524 2.56947C4.26675 2.57984 4.53913 2.62477 4.80694 2.69043L4.91346 2.71635L4.81151 2.75955C3.55461 3.29867 2.36619 4.15746 1.39537 5.25299C0.870394 5.84568 0.409329 6.50576 0.0365208 7.22286H0.0334768ZM3.71287 5.27891C2.74965 5.24953 1.82752 5.51391 1.01799 6.16017C1.20212 5.90616 1.40602 5.65042 1.62818 5.39814C2.43162 4.49096 3.48462 3.63044 4.81151 3.04293C4.89368 3.00665 4.97585 2.97209 5.0565 2.93926C5.13258 2.90815 5.21171 2.87878 5.29236 2.8494L5.30605 2.84422H5.30757L5.3167 2.84076C5.45974 2.78892 5.60277 2.74227 5.74733 2.7008C5.89189 2.65933 6.03797 2.61958 6.18862 2.58502L6.44121 2.52627L6.20992 2.65414C5.92993 2.80793 5.62864 3.00146 5.33192 3.22955C5.0778 3.42654 4.8252 3.65117 4.59543 3.90346C4.30023 4.22658 4.04155 4.62056 3.83003 5.03181C3.78743 5.11302 3.74786 5.19597 3.70982 5.27891H3.71287ZM5.74581 5.72991C5.1691 5.50182 4.59087 5.35148 4.02328 5.29964V5.29619C4.21349 4.88321 4.45696 4.4875 4.7826 4.11254C5.10976 3.73584 5.513 3.37988 5.97254 3.07922C6.39709 2.79929 6.87185 2.56602 7.37704 2.40532H7.38008H7.38312C7.72702 2.3794 8.07548 2.37767 8.42242 2.40013C8.76023 2.4226 9.09957 2.46752 9.43433 2.53664L9.58345 2.56774L9.43585 2.60922C9.08891 2.70425 8.66589 2.85977 8.23221 3.08268C7.88071 3.26238 7.5216 3.48702 7.19139 3.76003C6.85967 4.03478 6.55382 4.38556 6.29513 4.76052C6.07601 5.07674 5.89037 5.41023 5.74429 5.73163L5.74581 5.72991ZM7.53529 6.69238C7.50486 6.67164 7.47442 6.65091 7.44703 6.6319C6.98445 6.32605 6.50969 6.06167 6.03189 5.85086C6.15514 5.57439 6.29361 5.30656 6.45339 5.04909C6.69077 4.66894 6.97988 4.31471 7.34813 3.99331C7.71333 3.67536 8.14852 3.38852 8.63089 3.16216C9.07826 2.95135 9.56824 2.79238 10.0795 2.70598H10.0871H10.0932C10.2743 2.763 10.4538 2.82694 10.6304 2.90124C10.8038 2.97209 10.9758 3.05157 11.1432 3.1397C11.2634 3.19845 11.3821 3.26411 11.5008 3.33669C11.6194 3.40926 11.7366 3.48875 11.8553 3.57342L11.9344 3.63044L11.8416 3.64081C11.4855 3.68228 10.9925 3.79114 10.4675 3.98985C10.0582 4.14537 9.63063 4.35618 9.23347 4.63092C8.88197 4.87457 8.55329 5.1977 8.26873 5.54847C7.97049 5.91653 7.71789 6.31741 7.53529 6.69065V6.69238ZM9.24412 7.81901C8.66285 7.52353 8.17135 7.15547 7.79093 6.87727C7.97049 6.51958 8.1683 6.17572 8.40568 5.85432C8.66893 5.49663 8.9824 5.16832 9.37346 4.88148C9.75997 4.59809 10.2149 4.34927 10.711 4.1661C11.1721 3.99504 11.6712 3.88099 12.1885 3.84125H12.2007L12.2098 3.84816C12.4731 4.06416 12.7303 4.30261 12.9798 4.55489C13.2294 4.80545 13.4713 5.06983 13.7026 5.33593L13.7559 5.39641H13.6798C13.3191 5.40332 12.8337 5.45689 12.3133 5.58994C11.904 5.69535 11.4718 5.85086 11.0656 6.07031C10.6927 6.27076 10.3367 6.55241 10.0187 6.86863C9.71736 7.16757 9.45259 7.49761 9.24412 7.81728V7.81901ZM14.3113 6.0634C13.9096 7.1883 12.6222 8.13522 11.7047 8.29074C10.9027 8.40997 10.1708 8.23544 9.53172 7.95379C9.7128 7.68423 9.90605 7.42503 10.1252 7.18657C10.4219 6.86345 10.7643 6.57315 11.1797 6.33469C11.5738 6.10833 12.0242 5.92344 12.5111 5.80075C12.9646 5.68498 13.4485 5.6245 13.943 5.63314H13.9567L13.9659 5.64524C14.083 5.7852 14.1956 5.92344 14.3052 6.05649L14.3097 6.0634H14.3113Z" fill="#7A9B22"/>
<path fill-rule="evenodd" clip-rule="evenodd" d="M3.87827 14.6211C2.67767 13.6828 1.82706 12.3108 1.62012 10.6347C1.71142 10.7401 1.81032 10.8507 1.9138 10.963C2.22726 11.3 2.59398 11.6611 3.01396 12.0085L3.02614 12.0171V12.0326C3.07331 12.4715 3.17678 12.9623 3.33656 13.4409C3.47503 13.8591 3.65611 14.2652 3.87979 14.6211H3.87827ZM7.57744 15.9931C6.4788 15.9309 5.42733 15.6061 4.52041 15.0635C4.37129 14.8717 4.23586 14.6764 4.11565 14.4777C3.90718 14.1338 3.75197 13.7882 3.63633 13.4375C3.51916 13.0867 3.44155 12.7342 3.38677 12.3782L3.37308 12.2936L3.43699 12.3402C3.67285 12.5165 3.92392 12.6858 4.18717 12.8431C4.45042 13.002 4.72888 13.1489 5.02104 13.282L5.03321 13.2871L5.0393 13.2992C5.22038 13.7036 5.48059 14.1407 5.79557 14.5451C6.07708 14.9062 6.40271 15.238 6.74965 15.4937C7.01594 15.689 7.29745 15.8532 7.57896 15.9914L7.57744 15.9931ZM10.6862 15.4505C9.87668 15.7909 9.0428 15.9689 8.22415 16C7.72961 15.8013 7.27919 15.5404 6.89573 15.2466C6.58531 15.0082 6.32511 14.7438 6.10142 14.4604C5.87774 14.177 5.68905 13.8746 5.52015 13.5602L5.47602 13.4755L5.55971 13.5066C5.90817 13.6345 6.27489 13.7381 6.65988 13.8124C7.04334 13.8867 7.44505 13.9299 7.86503 13.9369H7.87721L7.88634 13.9472C8.18002 14.2583 8.56348 14.5727 8.98803 14.8319C9.36692 15.0635 9.77929 15.2518 10.1886 15.3555C10.353 15.397 10.5203 15.4298 10.6862 15.454V15.4505ZM13.4952 13.4219C12.7785 14.2133 11.9888 14.8095 11.1671 15.2276C10.846 15.1983 10.5371 15.1412 10.251 15.06C9.8782 14.9546 9.54648 14.8043 9.24367 14.6211C8.94085 14.438 8.66543 14.222 8.40523 13.987L8.3398 13.9265L8.42501 13.9213C8.77195 13.8988 9.12954 13.8522 9.49626 13.7762C9.8645 13.7001 10.2434 13.5947 10.6329 13.4565L10.6436 13.453L10.6542 13.4565C10.9936 13.5774 11.4014 13.6638 11.8244 13.6898C12.2018 13.7122 12.5913 13.6898 12.9504 13.5982C13.1376 13.5515 13.3202 13.491 13.4967 13.4219H13.4952ZM15.9664 8.77717C15.977 8.76162 15.9892 8.74607 15.9999 8.72879C15.4673 10.5155 14.7141 11.9359 13.8284 13.0314C13.515 13.1765 13.2 13.282 12.8972 13.3493C12.5898 13.4185 12.2976 13.4409 12.0146 13.4306C11.7331 13.4202 11.4607 13.3753 11.1929 13.3096L11.0849 13.2837L11.1868 13.2405C12.4437 12.7014 13.6322 11.8426 14.603 10.747C15.1279 10.1544 15.589 9.49427 15.9633 8.77717H15.9664ZM12.287 10.7211C13.2502 10.7505 14.1723 10.4861 14.9819 9.83986C14.7962 10.0939 14.5938 10.3496 14.3702 10.6019C13.5667 11.5091 12.5137 12.3696 11.1868 12.9571C11.1047 12.9934 11.0225 13.0279 10.9418 13.0608C10.8658 13.0919 10.7866 13.1213 10.706 13.1506L10.6923 13.1558H10.6908L10.6816 13.1593C10.5386 13.2111 10.3956 13.2578 10.251 13.2992C10.1065 13.3407 9.96037 13.3804 9.80972 13.415L9.55713 13.4738L9.78842 13.3459C10.0684 13.1921 10.3697 12.9986 10.6664 12.7705C10.9205 12.5735 11.1716 12.3489 11.4029 12.0966C11.6981 11.7734 11.9568 11.3795 12.1683 10.9682C12.2094 10.887 12.2505 10.8041 12.2885 10.7211H12.287ZM10.2541 10.2701C10.8308 10.4982 11.409 10.6485 11.9766 10.7004V10.7038C11.7864 11.1168 11.5444 11.5125 11.2173 11.8875C10.8886 12.2642 10.4869 12.6184 10.0273 12.9208C9.60278 13.2007 9.12954 13.434 8.62283 13.5947H8.61978H8.61674C8.27284 13.6206 7.92438 13.6224 7.57744 13.5999C7.23963 13.5792 6.9003 13.5325 6.56553 13.4634L6.41641 13.4323L6.56401 13.3908C6.91095 13.2958 7.33397 13.1403 7.76765 12.9174C8.11915 12.7376 8.47827 12.513 8.80847 12.24C9.14019 11.9653 9.44605 11.6145 9.70473 11.2395C9.92233 10.9233 10.1095 10.5898 10.2541 10.2684V10.2701ZM8.46457 9.30765C8.49501 9.32839 8.52544 9.34912 8.55283 9.36813C9.01542 9.67398 9.49018 9.93836 9.96798 10.1492C9.84472 10.4256 9.70625 10.6935 9.54648 10.9492C9.3091 11.3294 9.01998 11.6836 8.65174 12.005C8.28654 12.3229 7.85134 12.6098 7.36897 12.8361C6.9216 13.047 6.43163 13.2059 5.92035 13.2923H5.91274H5.90513C5.72405 13.2353 5.5445 13.1714 5.36798 13.0971C5.19451 13.0262 5.02256 12.9467 4.85518 12.8586C4.73649 12.7999 4.61628 12.7342 4.49759 12.6616C4.38042 12.589 4.26173 12.5096 4.14304 12.4249L4.06391 12.3679L4.15673 12.3575C4.5128 12.316 5.00582 12.2072 5.5308 12.0085C5.94013 11.8529 6.36772 11.6421 6.76487 11.3674C7.11638 11.1237 7.44506 10.8006 7.72961 10.4498C8.02785 10.0818 8.28045 9.68089 8.46305 9.30765H8.46457ZM6.75574 8.18103C7.33702 8.47651 7.82852 8.84456 8.20893 9.12276C8.02938 9.48045 7.83156 9.82431 7.59418 10.1457C7.33093 10.5034 7.01747 10.8317 6.6264 11.1186C6.2399 11.4019 5.78492 11.6508 5.28885 11.8339C4.82779 12.005 4.32868 12.119 3.81132 12.1588H3.79914L3.79001 12.1519C3.52676 11.9359 3.2696 11.6974 3.02005 11.4451C2.7705 11.1946 2.52855 10.9302 2.29726 10.6641L2.244 10.6036H2.32008C2.68072 10.5967 3.16613 10.5431 3.68654 10.4101C4.09587 10.3047 4.52802 10.1492 4.93431 9.92972C5.30711 9.72928 5.66319 9.44762 5.98121 9.1314C6.2825 8.83246 6.54727 8.50243 6.75574 8.18275V8.18103ZM1.68859 9.93663C2.09031 8.81173 3.37764 7.86481 4.29521 7.70929C5.09713 7.59006 5.82905 7.76459 6.46815 8.04624C6.28859 8.31581 6.09381 8.575 5.87469 8.81346C5.57797 9.13659 5.2356 9.42688 4.82018 9.66534C4.42607 9.8917 3.97566 10.0766 3.48872 10.1993C3.03527 10.3151 2.55138 10.3755 2.05683 10.3669H2.04314L2.03401 10.3548C1.91684 10.2148 1.80424 10.0766 1.69468 9.94354L1.69011 9.93836L1.68859 9.93663Z" fill="#451D02"/>
</svg>
