<svg width="357" height="75" viewBox="0 0 357 75" fill="none" xmlns="http://www.w3.org/2000/svg">
<path fill-rule="evenodd" clip-rule="evenodd" d="M60.8504 7.29916C66.7783 11.5801 70.9782 17.8398 72 25.4871C71.5417 25.0062 71.0608 24.5016 70.5499 23.9892C69.0022 22.4518 67.1915 20.8041 65.1179 19.2195L65.0578 19.1801V19.1091C64.8249 17.1066 64.314 14.8676 63.5251 12.6838C62.8414 10.7759 61.9473 8.92322 60.8429 7.29916H60.8504ZM42.5857 1.03154C48.0103 1.31535 53.2019 2.79751 57.6798 5.27302C58.4161 6.14812 59.0848 7.04688 59.6783 7.94563C60.7076 9.51451 61.474 11.0913 62.045 12.6917C62.6235 14.2921 63.0067 15.9004 63.2771 17.5245L63.3448 17.9108L63.0292 17.6979C61.8647 16.8938 60.625 16.1211 59.3252 15.4037C58.0254 14.6784 56.6505 14.0083 55.2079 13.4012L55.1478 13.3776L55.1178 13.3224C54.2237 11.4776 52.9389 9.48297 51.3837 7.63816C49.9938 5.99045 48.3934 4.47676 46.6729 3.30995C45.3581 2.41908 43.9681 1.67012 42.5782 1.03942L42.5857 1.03154ZM27.2362 3.50705C31.2332 1.95394 35.3505 1.14191 39.3926 1C41.8344 1.90664 44.0583 3.09709 45.9516 4.43734C47.4843 5.5253 48.7691 6.73153 49.8735 8.02447C50.978 9.31741 51.9096 10.6971 52.7436 12.1319L52.9615 12.5182L52.5483 12.3763C50.8277 11.7929 49.017 11.3199 47.1162 10.9809C45.2153 10.6419 43.2318 10.4448 41.1657 10.4133H41.1056L41.0605 10.366C39.6105 8.94687 37.7171 7.51202 35.621 6.32945C33.7502 5.27302 31.7141 4.41369 29.693 3.94066C28.8816 3.75145 28.0551 3.60166 27.2362 3.49128V3.50705ZM13.3668 12.7626C16.9055 9.15185 20.8049 6.43194 24.862 4.52406C26.4473 4.65809 27.9725 4.91825 29.385 5.28879C31.2257 5.7697 32.8636 6.45559 34.3587 7.29128C35.8539 8.12696 37.2137 9.11244 38.4985 10.1846L38.8216 10.4606L38.4008 10.4842C36.6878 10.5867 34.9297 10.7996 33.1115 11.1465C31.2933 11.4933 29.4225 11.9743 27.4991 12.605L27.4466 12.6207L27.394 12.605C25.7185 12.0531 23.705 11.6589 21.6163 11.5406C19.753 11.4382 17.8296 11.5406 16.0565 11.9585C15.1324 12.1714 14.2308 12.4473 13.3593 12.7626H13.3668ZM1.16529 33.9543C1.1127 34.0253 1.05259 34.0962 1 34.1751C3.62963 26.0232 7.34867 19.5427 11.7214 14.5444C13.2691 13.8821 14.8243 13.4012 16.3195 13.0938C17.8371 12.7784 19.2797 12.6759 20.6771 12.7232C22.0671 12.7705 23.412 12.9755 24.7343 13.2751L25.2602 13.3933L24.7568 13.5904C18.5509 16.0502 12.6831 19.9684 7.88963 24.9668C5.29757 27.6709 3.02106 30.6825 1.18032 33.9543H1.16529ZM19.3323 25.085C14.5764 24.951 10.0234 26.1572 6.02634 29.1058C6.93545 27.9468 7.94222 26.78 9.03916 25.629C13.0061 21.49 18.2053 17.5639 24.7568 14.8834C25.1625 14.7178 25.5683 14.5601 25.9665 14.4104C26.3421 14.2684 26.7328 14.1344 27.131 14.0004L27.1986 13.9767H27.2061L27.2512 13.961C27.9575 13.7245 28.6637 13.5116 29.3775 13.3224C30.0912 13.1332 30.8125 12.9518 31.5563 12.7942L32.8035 12.5261L31.6615 13.1095C30.279 13.8112 28.7914 14.6942 27.3263 15.7348C26.0716 16.6336 24.8244 17.6585 23.6899 18.8095C22.2324 20.2838 20.9551 22.0813 19.9108 23.9576C19.7004 24.3282 19.5051 24.7066 19.3172 25.085H19.3323ZM29.3699 27.1427C26.5224 26.102 23.6674 25.4161 20.865 25.1796V25.1639C21.8041 23.2796 23.0062 21.4742 24.6141 19.7635C26.2294 18.0448 28.2204 16.4207 30.4894 15.0489C32.5856 13.7718 34.9297 12.7075 37.4241 11.9743H37.4392H37.4542C39.1522 11.856 40.8727 11.8481 42.5857 11.9506C44.2536 12.0531 45.9291 12.2581 47.582 12.5734L48.3183 12.7153L47.5895 12.9045C45.8765 13.3382 43.7878 14.0477 41.6466 15.0647C39.911 15.8846 38.1379 16.9095 36.5075 18.1552C34.8696 19.4087 33.3595 21.0091 32.0822 22.7199C31.0003 24.1626 30.0837 25.6842 29.3624 27.1506L29.3699 27.1427ZM38.2055 31.534C38.0552 31.4394 37.905 31.3448 37.7697 31.258C35.4857 29.8626 33.1416 28.6564 30.7824 27.6946C31.391 26.4332 32.0747 25.2112 32.8636 24.0365C34.0357 22.302 35.4632 20.6859 37.2814 19.2195C39.0845 17.7689 41.2333 16.4601 43.615 15.4274C45.8239 14.4655 48.2432 13.7402 50.7676 13.346H50.8052H50.8352C51.7293 13.6062 52.6159 13.8979 53.4874 14.2369C54.3439 14.5601 55.1929 14.9228 56.0194 15.3249C56.6129 15.5929 57.1989 15.8925 57.785 16.2236C58.371 16.5547 58.9495 16.9174 59.5355 17.3037L59.9262 17.5639L59.4679 17.6112C57.7098 17.8004 55.2756 18.2971 52.6835 19.2037C50.6624 19.9132 48.5512 20.8751 46.5903 22.1286C44.8547 23.2402 43.2318 24.7145 41.8269 26.3149C40.3543 27.9941 39.1071 29.8232 38.2055 31.5261V31.534ZM46.6429 36.6742C43.7728 35.3261 41.346 33.6468 39.4677 32.3775C40.3543 30.7456 41.331 29.1767 42.5031 27.7103C43.8029 26.0784 45.3506 24.5805 47.2815 23.2717C49.1898 21.9788 51.4363 20.8435 53.8856 20.0079C56.1621 19.2274 58.6264 18.707 61.1809 18.5257H61.2411L61.2861 18.5572C62.5859 19.5427 63.8557 20.6307 65.0878 21.7817C66.32 22.9249 67.5146 24.1311 68.6566 25.3452L68.9196 25.6211H68.5439C66.7633 25.6527 64.3666 25.8971 61.797 26.5041C59.776 26.985 57.6422 27.6946 55.6362 28.6958C53.7955 29.6103 52.0374 30.8954 50.4671 32.3381C48.9795 33.702 47.6722 35.2078 46.6429 36.6663V36.6742ZM71.6619 28.6643C69.6784 33.7966 63.3222 38.117 58.7917 38.8265C54.8323 39.3705 51.2184 38.5742 48.0629 37.2892C48.9569 36.0593 49.9111 34.8767 50.993 33.7887C52.4581 32.3145 54.1486 30.99 56.1997 29.902C58.1456 28.8693 60.3695 28.0257 62.7738 27.4659C65.0127 26.9377 67.4019 26.6618 69.8437 26.7012H69.9113L69.9564 26.7564C70.5349 27.395 71.0909 28.0257 71.6318 28.6327L71.6544 28.6643H71.6619Z" fill="#7A9B22"/>
<path fill-rule="evenodd" clip-rule="evenodd" d="M20.1496 67.7087C14.2217 63.4278 10.0218 57.1681 9 49.5208C9.45079 50.0017 9.93915 50.5063 10.45 51.0187C11.9978 52.556 13.8085 54.2038 15.8821 55.7884L15.9422 55.8278V55.8988C16.1751 57.9013 16.686 60.1403 17.4749 62.3241C18.1586 64.232 19.0527 66.0847 20.1571 67.7087H20.1496ZM38.4143 73.9685C32.9897 73.6846 27.7981 72.2025 23.3202 69.727C22.5839 68.8519 21.9152 67.961 21.3217 67.0544C20.2924 65.4855 19.526 63.9087 18.955 62.3083C18.3765 60.7079 17.9933 59.0996 17.7229 57.4755L17.6552 57.0892L17.9708 57.3021C19.1353 58.1063 20.375 58.8789 21.6748 59.5963C22.9746 60.3216 24.3495 60.9917 25.7921 61.5988L25.8522 61.6224L25.8822 61.6776C26.7763 63.5224 28.0611 65.517 29.6163 67.3618C31.0062 69.0096 32.6141 70.5232 34.3271 71.69C35.6419 72.5809 37.0319 73.3299 38.4218 73.9606L38.4143 73.9685ZM53.7638 71.493C49.7668 73.0461 45.6495 73.8581 41.6074 74C39.1656 73.0934 36.9417 71.9029 35.0484 70.5627C33.5157 69.4747 32.2309 68.2685 31.1265 66.9755C30.022 65.6826 29.0904 64.3029 28.2564 62.8681L28.0385 62.4818L28.4517 62.6237C30.1723 63.2071 31.983 63.6801 33.8838 64.0191C35.7771 64.3581 37.7606 64.5552 39.8343 64.5867H39.8944L39.9395 64.634C41.3895 66.0531 43.2829 67.488 45.379 68.6706C47.2498 69.727 49.2859 70.5863 51.307 71.0593C52.1184 71.2486 52.9449 71.3983 53.7638 71.5087V71.493ZM67.6332 62.2374C64.0945 65.8481 60.1951 68.5681 56.138 70.4759C54.5527 70.3419 53.0275 70.0818 51.615 69.7112C49.7743 69.2303 48.1364 68.5444 46.6413 67.7087C45.1461 66.873 43.7862 65.8876 42.5015 64.8154L42.1784 64.5394L42.5992 64.5158C44.3122 64.4133 46.0778 64.2004 47.8885 63.8535C49.7067 63.5067 51.5775 63.0257 53.5008 62.395L53.5534 62.3793L53.606 62.395C55.2815 62.9469 57.295 63.3411 59.3837 63.4594C61.247 63.5618 63.1704 63.4594 64.9435 63.0415C65.8676 62.8286 66.7692 62.5527 67.6407 62.2374H67.6332ZM79.8347 41.0457C79.8873 40.9747 79.9474 40.9038 80 40.825C77.3704 48.9768 73.6513 55.4573 69.2786 60.4556C67.7309 61.1179 66.1757 61.5988 64.6805 61.9062C63.1629 62.2216 61.7203 62.3241 60.3229 62.2768C58.9329 62.2295 57.588 62.0245 56.2657 61.7249L55.7323 61.6067L56.2357 61.4096C62.4416 58.9498 68.3094 55.0316 73.1029 50.0332C75.6949 47.3291 77.9714 44.3175 79.8197 41.0457H79.8347ZM61.6677 49.915C66.4236 50.049 70.9766 48.8428 74.9736 45.8942C74.057 47.0532 73.0578 48.22 71.9533 49.371C67.9863 53.51 62.7872 57.4361 56.2357 60.1166C55.8299 60.2822 55.4242 60.4399 55.026 60.5897C54.6504 60.7316 54.2597 60.8656 53.8615 60.9996L53.7939 61.0233H53.7864L53.7413 61.039C53.035 61.2755 52.3288 61.4884 51.615 61.6776C50.9013 61.8668 50.18 62.0482 49.4362 62.2058L48.189 62.4739L49.331 61.8905C50.7134 61.1888 52.2011 60.3058 53.6661 59.2652C54.9208 58.3664 56.1605 57.3415 57.3025 56.1905C58.7601 54.7162 60.0373 52.9187 61.0817 51.0424C61.2845 50.6718 61.4874 50.2934 61.6752 49.915H61.6677ZM51.6301 47.8573C54.4776 48.898 57.3326 49.5839 60.135 49.8204V49.8361C59.1959 51.7204 58.0013 53.5258 56.3859 55.2365C54.7631 56.9552 52.7796 58.5714 50.5106 59.9511C48.4144 61.2282 46.0778 62.2926 43.5759 63.0257H43.5608H43.5458C41.8478 63.144 40.1273 63.1519 38.4143 63.0494C36.7463 62.9548 35.0709 62.7419 33.418 62.4266L32.6817 62.2847L33.4105 62.0955C35.1235 61.6618 37.2122 60.9523 39.3534 59.9353C41.089 59.1154 42.8621 58.0905 44.4925 56.8448C46.1304 55.5913 47.6405 53.9909 48.9178 52.2801C49.9922 50.8374 50.9163 49.3158 51.6301 47.8494V47.8573ZM42.7945 43.466C42.9448 43.5606 43.095 43.6552 43.2303 43.742C45.5143 45.1374 47.8584 46.3436 50.2176 47.3054C49.609 48.5668 48.9253 49.7888 48.1364 50.9556C46.9643 52.6901 45.5368 54.3063 43.7186 55.7726C41.9154 57.2233 39.7667 58.532 37.385 59.5648C35.1761 60.5266 32.7568 61.2519 30.2324 61.6461H30.1948H30.1573C29.2632 61.3859 28.3766 61.0942 27.5051 60.7552C26.6486 60.432 25.7996 60.0693 24.9731 59.6672C24.3871 59.3992 23.7935 59.0996 23.2075 58.7685C22.629 58.4374 22.043 58.0747 21.4569 57.6884L21.0662 57.4282L21.5245 57.3809C23.2826 57.1917 25.7169 56.695 28.309 55.7884C30.3301 55.0789 32.4413 54.117 34.4022 52.8635C36.1378 51.7519 37.7606 50.2776 39.1656 48.6772C40.6382 46.998 41.8854 45.1689 42.787 43.466H42.7945ZM34.3571 38.3258C37.2272 39.6739 39.654 41.3532 41.5323 42.6225C40.6457 44.2544 39.669 45.8233 38.4969 47.2897C37.1971 48.9216 35.6494 50.4195 33.7185 51.7283C31.8102 53.0212 29.5637 54.1565 27.1144 54.9921C24.8379 55.7726 22.3735 56.293 19.819 56.4743H19.7589L19.7139 56.4428C18.4141 55.4573 17.1443 54.3693 15.9122 53.2183C14.68 52.0751 13.4854 50.8689 12.3434 49.6548L12.0804 49.3789H12.4561C14.2367 49.3473 16.6334 49.1029 19.203 48.4959C21.224 48.015 23.3578 47.3054 25.3638 46.3042C27.2045 45.3897 28.9626 44.1046 30.5329 42.6619C32.0205 41.298 33.3278 39.7922 34.3571 38.3337V38.3258ZM9.33809 46.3357C11.3216 41.2034 17.6778 36.883 22.2083 36.1735C26.1677 35.6295 29.7816 36.4258 32.9371 37.7108C32.0506 38.9407 31.0889 40.1233 30.007 41.2113C28.5419 42.6855 26.8514 44.01 24.8003 45.098C22.8544 46.1307 20.6305 46.9743 18.2262 47.5341C15.9873 48.0623 13.5981 48.3382 11.1563 48.2988H11.0887L11.0436 48.2436C10.4651 47.605 9.9091 46.9743 9.36815 46.3673L9.3456 46.3436L9.33809 46.3357Z" fill="#451D02"/>
<path d="M231.052 38.1077C231.052 46.5385 228.987 47.5923 226.574 47.5923C223.74 47.5923 222.096 44.1462 222.096 37.9C222.096 29.4692 224.614 28.4154 226.574 28.4154C229.899 28.4154 231.052 31.8538 231.052 38.1077ZM237 38.1077C237 28.6231 233.118 25.0077 226.582 25.0077C223.333 25.0077 216.164 26.8308 216.164 37.9C216.164 47.3846 220.672 51 226.582 51C229.831 51 237 49.1769 237 38.1077ZM212.523 50.4692V25.2846H206.65L198.539 42.3923V25.2846H192.734V50.4692H198.644L206.718 32.5538V50.4692H212.523ZM183.959 42.7385C183.959 45.4769 182.768 47.3385 180.183 47.3385C179.24 47.3385 178.577 47.2692 178.223 47.2V38.1692C178.223 38.1692 179.135 37.8538 180.183 37.8538C183.085 37.8538 183.959 39.9231 183.959 42.7385ZM189.87 42.0692C189.87 37.8538 187.208 34.7615 181.653 34.7615C179.278 34.7615 178.223 35.1154 178.223 35.1154V28.7231H187.525V25.2846H172.418V50.1538C173.398 50.3308 176.964 50.7846 179.519 50.7846C187.389 50.7846 189.87 46.5 189.87 42.0769V42.0692ZM162.701 38.1C162.701 46.5308 160.635 47.5846 158.223 47.5846C155.389 47.5846 153.745 44.1385 153.745 37.8923C153.745 29.4615 156.263 28.4077 158.223 28.4077C161.548 28.4077 162.701 31.8462 162.701 38.1ZM168.649 38.1C168.649 28.6154 164.766 25 158.231 25C154.982 25 147.812 26.8231 147.812 37.8923C147.812 47.3769 152.32 50.9923 158.231 50.9923C161.48 50.9923 168.649 49.1692 168.649 38.1ZM139.596 32.6538C139.596 35.0769 139 37.4308 135.502 37.4308C134.665 37.4308 133.994 37.2923 133.994 37.2923V28.6846C134.484 28.6154 134.552 28.5077 135.502 28.5077C139 28.5077 139.596 30.7231 139.596 32.6538ZM145.189 32.3385C145.189 28.5077 142.882 25.1 135.819 25.1C132.185 25.1 128.197 25.6308 128.197 25.6308V50.4615H134.002V40.3769C134.002 40.3769 135.02 40.5154 136.309 40.5154C142.249 40.5154 145.189 37.2846 145.189 32.3308V32.3385ZM125.401 28.7231V25.2846H112.887V50.4692H118.691V28.7231H125.408H125.401ZM101.383 40.6692H97.154L99.2195 32.9385L101.391 40.6692H101.383ZM110.437 50.4692L102.778 25.2846H98.1943L90 50.4692H94.3723L96.2946 43.7615H102.099L103.886 50.4692H110.422H110.437Z" fill="#72A123"/>
<path d="M357 51.4859V25.1848H338.326V51.4859H344.152V28.7757H351.174V51.4859H357ZM334.082 51.4859V25.1848H315.416V51.4859H321.242V28.7757H328.263V51.4859H334.089H334.082ZM313.168 25.1848H308.644L304.921 39.2672L300.253 25.1848H293.791L301.827 46.0553C301.615 46.939 300.813 47.5254 299.549 47.5254C298.883 47.5254 297.832 47.3085 297.832 47.3085V51.6706C297.832 51.6706 298.845 52 299.829 52C303.688 52 305.549 49.0678 307.199 43.9265L313.168 25.1848ZM286.815 32.8887C286.815 35.4192 286.217 37.8774 282.706 37.8774C281.867 37.8774 281.201 37.7328 281.201 37.7328V28.7435C281.693 28.6712 281.761 28.5588 282.706 28.5588C286.217 28.5588 286.815 30.8724 286.815 32.8887ZM292.429 32.5594C292.429 28.5588 290.114 25 283.024 25C279.377 25 275.375 25.5543 275.375 25.5543V51.4859H281.201V40.9542C281.201 40.9542 282.222 41.0988 283.516 41.0988C289.486 41.0988 292.429 37.7248 292.429 32.5513V32.5594ZM272.568 28.7837V25.1928H260V51.4939H265.826V28.7837H272.568Z" fill="#430C00"/>
<path fill-rule="evenodd" clip-rule="evenodd" d="M249 32C251.756 32 254 34.4643 254 37.5C254 40.5357 251.763 43 249 43C246.237 43 244 40.5357 244 37.5C244 34.4643 246.237 32 249 32Z" fill="#72A123"/>
<path d="M60.8504 7.29916C66.7783 11.5801 70.9782 17.8398 72 25.4871C71.5417 25.0062 71.0608 24.5016 70.5499 23.9892C69.0022 22.4518 67.1915 20.8041 65.1179 19.2195L65.0578 19.1801V19.1091C64.8249 17.1066 64.314 14.8676 63.5251 12.6838C62.8414 10.7759 61.9473 8.92322 60.8429 7.29916H60.8504ZM42.5857 1.03154C48.0103 1.31535 53.2019 2.79751 57.6798 5.27302C58.4161 6.14812 59.0848 7.04688 59.6783 7.94563C60.7076 9.51451 61.474 11.0913 62.045 12.6917C62.6235 14.2921 63.0067 15.9004 63.2771 17.5245L63.3448 17.9108L63.0292 17.6979C61.8647 16.8938 60.625 16.1211 59.3252 15.4037C58.0254 14.6784 56.6505 14.0083 55.2079 13.4012L55.1478 13.3776L55.1178 13.3224C54.2237 11.4776 52.9389 9.48297 51.3837 7.63816C49.9938 5.99045 48.3934 4.47676 46.6729 3.30995C45.3581 2.41908 43.9681 1.67012 42.5782 1.03942L42.5857 1.03154ZM27.2362 3.50705C31.2332 1.95394 35.3505 1.14191 39.3926 1C41.8344 1.90664 44.0583 3.09709 45.9516 4.43734C47.4843 5.5253 48.7691 6.73153 49.8735 8.02447C50.978 9.31741 51.9096 10.6971 52.7436 12.1319L52.9615 12.5182L52.5483 12.3763C50.8277 11.7929 49.017 11.3199 47.1162 10.9809C45.2153 10.6419 43.2318 10.4448 41.1657 10.4133H41.1056L41.0605 10.366C39.6105 8.94687 37.7171 7.51202 35.621 6.32945C33.7502 5.27302 31.7141 4.41369 29.693 3.94066C28.8816 3.75145 28.0551 3.60166 27.2362 3.49128V3.50705ZM13.3668 12.7626C16.9055 9.15185 20.8049 6.43194 24.862 4.52406C26.4473 4.65809 27.9725 4.91825 29.385 5.28879C31.2257 5.7697 32.8636 6.45559 34.3587 7.29128C35.8539 8.12696 37.2138 9.11244 38.4985 10.1846L38.8216 10.4606L38.4008 10.4842C36.6878 10.5867 34.9297 10.7996 33.1115 11.1465C31.2933 11.4933 29.4225 11.9743 27.4991 12.605L27.4466 12.6207L27.394 12.605C25.7185 12.0531 23.705 11.6589 21.6163 11.5406C19.753 11.4382 17.8296 11.5406 16.0565 11.9585C15.1324 12.1714 14.2308 12.4473 13.3593 12.7626H13.3668ZM1.16529 33.9543C1.1127 34.0253 1.05259 34.0962 1 34.1751C3.62963 26.0232 7.34867 19.5427 11.7214 14.5444C13.2691 13.8821 14.8243 13.4012 16.3195 13.0938C17.8371 12.7784 19.2797 12.6759 20.6771 12.7232C22.0671 12.7705 23.412 12.9755 24.7343 13.2751L25.2602 13.3933L24.7568 13.5904C18.5509 16.0502 12.6831 19.9684 7.88963 24.9668C5.29757 27.6709 3.02106 30.6825 1.18032 33.9543H1.16529ZM19.3323 25.085C14.5764 24.951 10.0234 26.1572 6.02634 29.1058C6.93545 27.9468 7.94223 26.78 9.03916 25.629C13.0061 21.49 18.2053 17.5639 24.7568 14.8834C25.1625 14.7178 25.5683 14.5601 25.9665 14.4104C26.3421 14.2684 26.7328 14.1344 27.131 14.0004L27.1986 13.9767H27.2061L27.2512 13.961C27.9575 13.7245 28.6637 13.5116 29.3775 13.3224C30.0912 13.1332 30.8125 12.9518 31.5563 12.7942L32.8035 12.5261L31.6615 13.1095C30.279 13.8112 28.7914 14.6942 27.3263 15.7348C26.0716 16.6336 24.8244 17.6585 23.6899 18.8095C22.2324 20.2838 20.9551 22.0813 19.9108 23.9576C19.7004 24.3282 19.5051 24.7066 19.3172 25.085H19.3323ZM29.3699 27.1427C26.5224 26.102 23.6674 25.4161 20.865 25.1796V25.1639C21.8041 23.2796 23.0062 21.4742 24.6141 19.7635C26.2294 18.0448 28.2204 16.4207 30.4894 15.0489C32.5856 13.7718 34.9297 12.7075 37.4241 11.9743H37.4392H37.4542C39.1522 11.856 40.8727 11.8481 42.5857 11.9506C44.2536 12.0531 45.9291 12.2581 47.582 12.5734L48.3183 12.7153L47.5895 12.9045C45.8765 13.3382 43.7878 14.0477 41.6466 15.0647C39.911 15.8846 38.1379 16.9095 36.5075 18.1552C34.8696 19.4087 33.3595 21.0091 32.0822 22.7199C31.0003 24.1626 30.0837 25.6842 29.3624 27.1506L29.3699 27.1427ZM38.2055 31.534C38.0552 31.4394 37.905 31.3448 37.7697 31.258C35.4857 29.8626 33.1416 28.6564 30.7824 27.6946C31.391 26.4332 32.0747 25.2112 32.8636 24.0365C34.0357 22.302 35.4632 20.6859 37.2814 19.2195C39.0845 17.7689 41.2333 16.4601 43.615 15.4274C45.8239 14.4655 48.2432 13.7402 50.7676 13.346H50.8052H50.8352C51.7293 13.6062 52.6159 13.8979 53.4874 14.2369C54.3439 14.5601 55.1929 14.9228 56.0194 15.3249C56.6129 15.5929 57.1989 15.8925 57.785 16.2236C58.371 16.5547 58.9495 16.9174 59.5355 17.3037L59.9262 17.5639L59.4679 17.6112C57.7098 17.8004 55.2756 18.2971 52.6835 19.2037C50.6624 19.9132 48.5512 20.8751 46.5903 22.1286C44.8547 23.2402 43.2319 24.7145 41.8269 26.3149C40.3543 27.9941 39.1071 29.8232 38.2055 31.5261V31.534ZM46.6429 36.6742C43.7728 35.3261 41.346 33.6468 39.4677 32.3775C40.3543 30.7456 41.331 29.1767 42.5031 27.7103C43.8029 26.0784 45.3506 24.5805 47.2815 23.2717C49.1898 21.9788 51.4363 20.8435 53.8856 20.0079C56.1621 19.2274 58.6264 18.707 61.1809 18.5257H61.2411L61.2861 18.5572C62.5859 19.5427 63.8557 20.6307 65.0878 21.7817C66.32 22.9249 67.5146 24.1311 68.6566 25.3452L68.9196 25.6211H68.5439C66.7633 25.6527 64.3666 25.8971 61.797 26.5041C59.776 26.985 57.6422 27.6946 55.6362 28.6958C53.7955 29.6103 52.0374 30.8954 50.4671 32.3381C48.9795 33.702 47.6722 35.2078 46.6429 36.6663V36.6742ZM71.6619 28.6643C69.6784 33.7966 63.3222 38.117 58.7917 38.8265C54.8323 39.3705 51.2184 38.5742 48.0629 37.2892C48.9569 36.0593 49.9111 34.8767 50.993 33.7887C52.4581 32.3145 54.1486 30.99 56.1997 29.902C58.1456 28.8693 60.3695 28.0257 62.7738 27.4659C65.0127 26.9377 67.4019 26.6618 69.8437 26.7012H69.9113L69.9564 26.7564C70.5349 27.395 71.0909 28.0257 71.6318 28.6327L71.6544 28.6643H71.6619Z" stroke="#D4E5B5" stroke-width="0.22" stroke-miterlimit="22.93"/>
<path d="M20.1496 67.7087C14.2217 63.4278 10.0218 57.1681 9 49.5208C9.45079 50.0017 9.93915 50.5063 10.45 51.0187C11.9978 52.5561 13.8085 54.2038 15.8821 55.7884L15.9422 55.8278V55.8988C16.1751 57.9013 16.686 60.1403 17.4749 62.3241C18.1586 64.232 19.0527 66.0847 20.1571 67.7087H20.1496ZM38.4143 73.9685C32.9897 73.6846 27.7981 72.2025 23.3202 69.727C22.5839 68.8519 21.9152 67.961 21.3217 67.0544C20.2924 65.4855 19.526 63.9087 18.955 62.3083C18.3765 60.7079 17.9933 59.0996 17.7229 57.4755L17.6552 57.0892L17.9708 57.3021C19.1353 58.1062 20.375 58.8789 21.6748 59.5963C22.9746 60.3216 24.3495 60.9917 25.7921 61.5988L25.8522 61.6224L25.8822 61.6776C26.7763 63.5224 28.0611 65.517 29.6163 67.3618C31.0062 69.0096 32.6141 70.5232 34.3271 71.69C35.6419 72.5809 37.0319 73.3299 38.4218 73.9606L38.4143 73.9685ZM53.7638 71.493C49.7668 73.0461 45.6495 73.8581 41.6074 74C39.1656 73.0934 36.9417 71.9029 35.0484 70.5627C33.5157 69.4747 32.2309 68.2685 31.1265 66.9755C30.022 65.6826 29.0904 64.3029 28.2564 62.8681L28.0385 62.4818L28.4517 62.6237C30.1723 63.2071 31.983 63.6801 33.8838 64.0191C35.7771 64.3581 37.7606 64.5552 39.8343 64.5867H39.8944L39.9395 64.634C41.3895 66.0531 43.2829 67.488 45.379 68.6706C47.2498 69.727 49.2859 70.5863 51.307 71.0593C52.1184 71.2486 52.9449 71.3983 53.7638 71.5087V71.493ZM67.6332 62.2374C64.0945 65.8481 60.1951 68.5681 56.138 70.4759C54.5527 70.3419 53.0275 70.0818 51.615 69.7112C49.7743 69.2303 48.1364 68.5444 46.6413 67.7087C45.1461 66.873 43.7862 65.8876 42.5015 64.8154L42.1784 64.5394L42.5992 64.5158C44.3122 64.4133 46.0778 64.2004 47.8885 63.8535C49.7067 63.5067 51.5775 63.0257 53.5008 62.395L53.5534 62.3793L53.606 62.395C55.2815 62.9469 57.295 63.3411 59.3837 63.4594C61.247 63.5618 63.1704 63.4594 64.9435 63.0415C65.8676 62.8286 66.7692 62.5527 67.6407 62.2374H67.6332ZM79.8347 41.0457C79.8873 40.9747 79.9474 40.9038 80 40.825C77.3704 48.9768 73.6513 55.4573 69.2786 60.4556C67.7309 61.1179 66.1757 61.5988 64.6805 61.9062C63.1629 62.2216 61.7203 62.3241 60.3229 62.2768C58.9329 62.2295 57.588 62.0245 56.2657 61.7249L55.7323 61.6067L56.2357 61.4096C62.4416 58.9498 68.3094 55.0316 73.1029 50.0332C75.6949 47.3291 77.9714 44.3175 79.8197 41.0457H79.8347ZM61.6677 49.915C66.4236 50.049 70.9766 48.8428 74.9736 45.8942C74.057 47.0532 73.0578 48.22 71.9533 49.371C67.9863 53.51 62.7872 57.4361 56.2357 60.1166C55.8299 60.2822 55.4242 60.4399 55.026 60.5897C54.6504 60.7316 54.2597 60.8656 53.8615 60.9996L53.7939 61.0233H53.7863L53.7413 61.039C53.035 61.2755 52.3288 61.4884 51.615 61.6776C50.9013 61.8668 50.18 62.0482 49.4362 62.2058L48.189 62.4739L49.331 61.8905C50.7134 61.1888 52.2011 60.3058 53.6661 59.2652C54.9208 58.3664 56.1605 57.3415 57.3025 56.1905C58.7601 54.7162 60.0373 52.9187 61.0817 51.0424C61.2845 50.6718 61.4874 50.2934 61.6752 49.915H61.6677ZM51.6301 47.8573C54.4776 48.898 57.3326 49.5839 60.135 49.8204V49.8361C59.1959 51.7204 58.0013 53.5258 56.3859 55.2365C54.7631 56.9552 52.7796 58.5714 50.5106 59.9511C48.4144 61.2282 46.0778 62.2926 43.5759 63.0257H43.5608H43.5458C41.8478 63.144 40.1273 63.1519 38.4143 63.0494C36.7463 62.9548 35.0709 62.7419 33.418 62.4266L32.6817 62.2847L33.4105 62.0955C35.1235 61.6618 37.2122 60.9523 39.3534 59.9353C41.089 59.1154 42.8621 58.0905 44.4925 56.8448C46.1304 55.5913 47.6405 53.9909 48.9178 52.2801C49.9922 50.8374 50.9163 49.3158 51.6301 47.8494V47.8573ZM42.7945 43.466C42.9448 43.5606 43.095 43.6552 43.2303 43.742C45.5143 45.1374 47.8584 46.3436 50.2176 47.3054C49.609 48.5668 48.9253 49.7888 48.1364 50.9556C46.9643 52.6901 45.5368 54.3063 43.7186 55.7726C41.9154 57.2233 39.7667 58.532 37.385 59.5648C35.1761 60.5266 32.7568 61.2519 30.2324 61.6461H30.1948H30.1573C29.2632 61.3859 28.3766 61.0942 27.5051 60.7552C26.6486 60.432 25.7996 60.0693 24.9731 59.6672C24.3871 59.3992 23.7935 59.0996 23.2075 58.7685C22.629 58.4374 22.043 58.0747 21.4569 57.6884L21.0662 57.4282L21.5245 57.3809C23.2826 57.1917 25.7169 56.6951 28.309 55.7884C30.3301 55.0789 32.4413 54.117 34.4022 52.8635C36.1378 51.7519 37.7606 50.2776 39.1656 48.6772C40.6382 46.998 41.8854 45.1689 42.787 43.466H42.7945ZM34.3571 38.3258C37.2272 39.6739 39.654 41.3532 41.5323 42.6225C40.6457 44.2544 39.669 45.8233 38.4969 47.2897C37.1971 48.9216 35.6494 50.4195 33.7185 51.7283C31.8102 53.0212 29.5637 54.1565 27.1144 54.9921C24.8379 55.7726 22.3735 56.293 19.819 56.4743H19.7589L19.7139 56.4428C18.4141 55.4573 17.1443 54.3693 15.9122 53.2183C14.68 52.0751 13.4854 50.8689 12.3434 49.6548L12.0804 49.3789H12.4561C14.2367 49.3473 16.6334 49.1029 19.203 48.4959C21.224 48.015 23.3578 47.3054 25.3638 46.3042C27.2045 45.3897 28.9626 44.1046 30.5329 42.6619C32.0205 41.298 33.3278 39.7922 34.3571 38.3337V38.3258ZM9.33809 46.3357C11.3216 41.2034 17.6778 36.883 22.2083 36.1735C26.1677 35.6295 29.7816 36.4258 32.9371 37.7108C32.0506 38.9407 31.0889 40.1233 30.007 41.2113C28.5419 42.6855 26.8514 44.01 24.8003 45.098C22.8544 46.1307 20.6305 46.9743 18.2262 47.5341C15.9873 48.0623 13.5981 48.3382 11.1563 48.2988H11.0887L11.0436 48.2436C10.4651 47.605 9.9091 46.9743 9.36815 46.3673L9.3456 46.3436L9.33809 46.3357Z" stroke="#D4E5B5" stroke-width="0.22" stroke-miterlimit="22.93"/>
</svg>
