<svg width="172" height="172" viewBox="0 0 172 172" fill="none" xmlns="http://www.w3.org/2000/svg">
<path d="M68.6571 129.999C69.971 130.006 71.2735 129.754 72.4896 129.257C73.7058 128.759 74.8115 128.026 75.7433 127.1C76.6751 126.173 77.4146 125.072 77.9192 123.858C78.4238 122.645 78.6836 121.344 78.6836 120.03C78.6836 118.716 78.4238 117.415 77.9192 116.202C77.4146 114.989 76.6751 113.887 75.7433 112.961C74.8115 112.035 73.7058 111.302 72.4896 110.804C71.2735 110.306 69.971 110.054 68.6571 110.062H61.1966C60.662 110.062 60.1493 110.274 59.7713 110.652C59.3933 111.03 59.181 111.543 59.181 112.077V125.967H55.749C55.4843 125.967 55.2222 126.02 54.9777 126.121C54.7331 126.222 54.5109 126.371 54.3238 126.558C54.1366 126.745 53.9881 126.967 53.8868 127.212C53.7855 127.456 53.7334 127.718 53.7334 127.983C53.7334 128.248 53.7855 128.51 53.8868 128.754C53.9881 128.999 54.1366 129.221 54.3238 129.408C54.5109 129.596 54.7331 129.744 54.9777 129.845C55.2222 129.947 55.4843 129.999 55.749 129.999H59.181V133.017H55.749C55.2144 133.017 54.7018 133.23 54.3238 133.608C53.9458 133.986 53.7334 134.498 53.7334 135.033C53.7334 135.567 53.9458 136.08 54.3238 136.458C54.7018 136.836 55.2144 137.048 55.749 137.048H59.181V142.312C59.181 142.846 59.3933 143.359 59.7713 143.737C60.1493 144.115 60.662 144.327 61.1966 144.327C61.7312 144.327 62.2438 144.115 62.6218 143.737C62.9998 143.359 63.2122 142.846 63.2122 142.312V137.048H73.8769C74.4115 137.048 74.9241 136.836 75.3021 136.458C75.6801 136.08 75.8925 135.567 75.8925 135.033C75.8925 134.498 75.6801 133.986 75.3021 133.608C74.9241 133.23 74.4115 133.017 73.8769 133.017H63.2122V129.999H68.6571ZM63.2122 114.093H68.6571C69.4405 114.087 70.2174 114.236 70.9429 114.532C71.6684 114.828 72.3282 115.264 72.8843 115.816C73.4403 116.368 73.8817 117.025 74.1829 117.748C74.484 118.471 74.6391 119.247 74.6391 120.03C74.6391 120.814 74.484 121.589 74.1829 122.313C73.8817 123.036 73.4403 123.693 72.8843 124.244C72.3282 124.796 71.6684 125.233 70.9429 125.528C70.2174 125.824 69.4405 125.973 68.6571 125.967H63.2122V114.093Z" fill="#8BB91F"/>
<path d="M25.0907 23.1901C25.5043 23.5287 26.0354 23.6892 26.5673 23.6362C27.0992 23.5832 27.5883 23.3211 27.927 22.9076C28.1672 22.614 28.9916 21.89 30.5577 21.0381C30.7912 20.9134 30.9979 20.744 31.1659 20.5394C31.3339 20.3349 31.46 20.0993 31.537 19.846C31.6139 19.5927 31.6403 19.3268 31.6144 19.0633C31.5886 18.7999 31.5112 18.5441 31.3865 18.3106C31.2618 18.0771 31.0924 17.8704 30.8878 17.7024C30.6833 17.5344 30.4477 17.4083 30.1944 17.3313C29.9411 17.2544 29.6752 17.2281 29.4117 17.2539C29.1483 17.2797 28.8925 17.3572 28.659 17.4818L28.6318 17.4966C26.3024 18.7634 25.2361 19.8304 24.8078 20.3521C24.64 20.5568 24.5142 20.7926 24.4375 21.0459C24.3608 21.2993 24.3348 21.5652 24.3609 21.8287C24.387 22.0921 24.4648 22.3478 24.5897 22.5811C24.7146 22.8145 24.8843 23.021 25.089 23.1888L25.0907 23.1901Z" fill="#8BB91F"/>
<path d="M36.875 18.4399C37.062 18.4399 37.2481 18.4138 37.4279 18.3623C43.156 16.732 50.2913 15.8341 57.52 15.8341C58.0546 15.8341 58.5673 15.6217 58.9453 15.2437C59.3233 14.8657 59.5356 14.353 59.5356 13.8185C59.5356 13.2839 59.3233 12.7712 58.9453 12.3932C58.5673 12.0152 58.0546 11.8028 57.52 11.8028C49.8186 11.8028 42.4892 12.7303 36.3244 14.485C35.8561 14.6176 35.4516 14.9151 35.1856 15.3226C34.9196 15.7302 34.8101 16.2202 34.8772 16.7022C34.9443 17.1843 35.1835 17.6257 35.5507 17.9451C35.9179 18.2645 36.3883 18.4403 36.875 18.4399Z" fill="#8BB91F"/>
<path d="M67.9695 98.3961C63.4515 98.1827 58.9447 99.0076 54.7951 100.807C50.6456 102.607 46.9637 105.334 44.0321 108.778C41.1006 112.223 38.9974 116.293 37.884 120.677C36.7706 125.061 36.6766 129.641 37.6094 134.067C38.5421 138.493 40.4766 142.646 43.2645 146.208C46.0524 149.77 49.6194 152.645 53.6917 154.613C57.7639 156.582 62.2331 157.591 66.7561 157.563C71.279 157.535 75.7354 156.471 79.7831 154.452C80.0724 154.305 80.3219 154.09 80.5103 153.826C80.6987 153.561 80.8204 153.255 80.8652 152.934C80.9099 152.612 80.8764 152.285 80.7673 151.979C80.6583 151.673 80.477 151.398 80.2389 151.178C79.9344 150.897 79.5513 150.716 79.141 150.659C78.7306 150.602 78.3128 150.672 77.9435 150.86C72.4802 153.57 66.2283 154.239 60.3154 152.746C54.4025 151.253 49.2178 147.696 45.6966 142.716C42.1754 137.737 40.5495 131.663 41.1121 125.591C41.6747 119.518 44.3889 113.846 48.7649 109.599C53.141 105.351 58.8909 102.807 64.9776 102.425C71.0642 102.044 77.0868 103.85 81.9591 107.518C86.8314 111.186 90.2326 116.474 91.5491 122.429C92.8657 128.384 92.011 134.613 89.1393 139.993C88.9299 140.375 88.8534 140.817 88.9216 141.247C88.9899 141.678 89.1991 142.074 89.5165 142.373L89.6059 142.456C89.8254 142.66 90.0888 142.811 90.3758 142.897C90.6627 142.984 90.9657 143.003 91.2613 142.954C91.5568 142.904 91.8372 142.788 92.0807 142.613C92.3242 142.439 92.5244 142.21 92.6659 141.946C95.0304 137.541 96.24 132.608 96.1819 127.609C96.1237 122.61 94.7997 117.706 92.3334 113.357C89.8671 109.008 86.339 105.355 82.0784 102.739C77.8179 100.122 72.9638 98.6284 67.9695 98.3961Z" fill="#8BB91F"/>
<path d="M143.244 84.2215C135.528 81.1353 125.313 79.4354 114.48 79.4354C109.347 79.4258 104.222 79.8324 99.1543 80.6512V21.2679C99.1543 16.1549 94.5832 11.5106 86.2828 8.19049C78.5673 5.10423 68.3525 3.40439 57.5195 3.40439C46.6865 3.40439 36.4717 5.10423 28.7562 8.19049C20.4559 11.5106 15.8848 16.1549 15.8848 21.2679V116.354C15.8848 120.831 19.4487 125.004 25.9542 128.191C25.9928 135.796 28.1661 143.237 32.2267 149.668C36.2873 156.098 42.072 161.259 48.922 164.563C55.772 167.867 63.4121 169.181 70.9723 168.356C78.5325 167.53 85.709 164.598 91.6847 159.894C98.4354 161.733 106.289 162.705 114.48 162.705C125.313 162.705 135.528 161.005 143.244 157.919C151.544 154.599 156.115 149.955 156.115 144.842V97.2989C156.115 92.1859 151.544 87.5413 143.244 84.2215ZM30.2531 11.9332C37.504 9.03302 47.1874 7.43564 57.5199 7.43564C67.8523 7.43564 77.5353 9.03302 84.7862 11.9332C91.3555 14.5612 95.1233 17.9636 95.1233 21.2679C95.1233 24.5721 91.3555 27.9745 84.7862 30.6039C77.5353 33.504 67.8519 35.1014 57.5199 35.1014C47.1878 35.1014 37.504 33.5027 30.2531 30.6039C23.6836 27.9745 19.916 24.5725 19.916 21.2679C19.916 17.9632 23.6836 14.5612 30.2531 11.9332ZM19.916 45.0022C21.2033 46.1451 22.6113 47.1441 24.1152 47.9816C24.3426 48.1237 24.5961 48.2188 24.8608 48.2616C25.1255 48.3043 25.396 48.2937 25.6566 48.2304C25.9171 48.1671 26.1624 48.0524 26.378 47.893C26.5936 47.7336 26.7751 47.5328 26.912 47.3022C27.0489 47.0717 27.1384 46.8161 27.1751 46.5506C27.2119 46.285 27.1952 46.0147 27.126 45.7557C27.0569 45.4966 26.9367 45.254 26.7725 45.0421C26.6083 44.8301 26.4034 44.6531 26.1698 44.5215C26.1453 44.507 26.1204 44.4929 26.0953 44.4795C22.1208 42.2287 19.916 39.6446 19.916 37.1177V29.156C22.0627 31.1011 25.0327 32.8574 28.7559 34.3466C36.4717 37.4328 46.6865 39.1327 57.5199 39.1327C68.3532 39.1327 78.5677 37.4328 86.2831 34.3466C90.0067 32.8574 92.9767 31.1011 95.1233 29.156V37.1177C95.1233 40.4223 91.3555 43.8247 84.7862 46.4524C77.5357 49.3526 67.8519 50.95 57.5199 50.95C52.4 50.9648 47.288 50.5472 42.2384 49.7016C41.952 49.6508 41.658 49.6633 41.377 49.7382C41.096 49.8131 40.8347 49.9486 40.6116 50.1352C40.3885 50.3217 40.2089 50.5548 40.0855 50.8182C39.962 51.0815 39.8976 51.3686 39.8969 51.6595V51.7095C39.8967 52.1791 40.0625 52.6336 40.365 52.9927C40.6675 53.3519 41.0873 53.5925 41.5501 53.6721C46.8269 54.5578 52.1692 54.9961 57.5199 54.9822C68.3528 54.9822 78.568 53.2824 86.2831 50.1964C90.0067 48.7069 92.9767 46.9506 95.1233 45.0055V52.9673C95.1233 56.2715 91.3555 59.6739 84.7862 62.3016C77.5353 65.2021 67.8519 66.7995 57.5199 66.7995C47.1878 66.7995 37.5034 65.2024 30.2531 62.3023C23.6836 59.6719 19.916 56.2709 19.916 52.9632V45.0022ZM19.916 60.8504C22.0627 62.7954 25.0327 64.5521 28.7559 66.0413C36.471 69.1269 46.6862 70.8267 57.5199 70.8267C68.3535 70.8267 78.5677 69.1269 86.2831 66.0406C90.0067 64.5514 92.9767 62.7948 95.1233 60.8497V68.8114C95.1233 72.1157 91.3555 75.5181 84.7862 78.1458C77.5353 81.0459 67.8519 82.6433 57.5199 82.6433C47.1878 82.6433 37.504 81.0459 30.2531 78.1458C23.6836 75.5187 19.916 72.1154 19.916 68.8111V60.8504ZM19.916 76.6975C22.0627 78.6426 25.0327 80.3989 28.7559 81.8885C36.4717 84.9747 46.6865 86.6742 57.5199 86.6742C68.3532 86.6742 78.5677 84.9747 86.2831 81.8885C90.0067 80.3989 92.9767 78.6426 95.1233 76.6975V81.4205C87.6595 83.0518 81.4601 85.6153 77.5444 88.833C71.1673 87.0474 64.4501 86.8492 57.9789 88.2559C51.5076 89.6625 45.4788 92.6311 40.4183 96.9028C28.1146 94.4784 19.916 89.608 19.916 84.6586V76.6975ZM19.916 92.5175C23.4995 95.7724 29.3401 98.4737 36.8876 100.261C34.2217 103.115 31.9794 106.338 30.2293 109.829C23.737 107.226 19.916 103.802 19.916 100.506V92.5175ZM26.1695 123.749C22.1648 121.484 19.9167 118.863 19.9167 116.354V108.412C22.0331 110.322 24.9507 112.047 28.606 113.522C27.3509 116.81 26.5317 120.248 26.1695 123.749ZM92.2413 150.769C91.8633 150.391 91.3506 150.178 90.816 150.178C90.2814 150.178 89.7687 150.391 89.3907 150.769C89.0128 151.147 88.8004 151.66 88.8004 152.194C88.8005 152.729 89.0129 153.242 89.3909 153.62L90.9876 155.216C84.8031 160.777 76.903 164.056 68.5984 164.509V162.233C68.5984 161.698 68.386 161.185 68.008 160.807C67.63 160.429 67.1173 160.217 66.5828 160.217C66.0482 160.217 65.5355 160.429 65.1575 160.807C64.7795 161.185 64.5671 161.698 64.5671 162.233V164.509C56.2632 164.056 48.3636 160.777 42.1793 155.217L43.776 153.621C44.154 153.243 44.3664 152.73 44.3664 152.195C44.3664 151.661 44.154 151.148 43.776 150.77C43.3979 150.392 42.8852 150.18 42.3506 150.18C41.816 150.18 41.3032 150.392 40.9252 150.77L39.3288 152.367C33.7687 146.182 30.4903 138.283 30.0375 129.979H32.3138C32.8484 129.979 33.361 129.767 33.7391 129.389C34.1171 129.011 34.3294 128.498 34.3294 127.963C34.3294 127.429 34.1171 126.916 33.7391 126.538C33.361 126.16 32.8484 125.948 32.3138 125.948H30.0388C30.4916 117.644 33.7701 109.744 39.3302 103.56L40.9269 105.157C41.3049 105.535 41.8176 105.747 42.3522 105.747C42.8867 105.747 43.3995 105.535 43.7775 105.157C44.1555 104.779 44.3679 104.266 44.368 103.732C44.368 103.197 44.1556 102.684 43.7777 102.306L42.1806 100.709C48.3646 95.1495 56.2636 91.8708 64.5671 91.4173V93.693C64.5671 94.2275 64.7795 94.7402 65.1575 95.1182C65.5355 95.4962 66.0482 95.7086 66.5828 95.7086C67.1173 95.7086 67.63 95.4962 68.008 95.1182C68.386 94.7402 68.5984 94.2275 68.5984 93.693V91.4166C76.9024 91.8695 84.8019 95.1479 90.9863 100.708L89.3892 102.305C89.2021 102.492 89.0536 102.714 88.9523 102.959C88.851 103.204 88.7989 103.466 88.7989 103.73C88.799 103.995 88.8511 104.257 88.9524 104.502C89.0537 104.746 89.2022 104.968 89.3894 105.156C89.5766 105.343 89.7988 105.491 90.0434 105.593C90.2879 105.694 90.55 105.746 90.8147 105.746C91.0794 105.746 91.3415 105.694 91.5861 105.592C91.8306 105.491 92.0528 105.343 92.24 105.155L93.8367 103.558C99.3968 109.743 102.675 117.642 103.128 125.946H100.852C100.318 125.946 99.8048 126.159 99.4268 126.537C99.0488 126.915 98.8365 127.427 98.8365 127.962C98.8365 128.497 99.0488 129.009 99.4268 129.387C99.8048 129.765 100.318 129.978 100.852 129.978H103.128C102.675 138.282 99.3968 146.181 93.8367 152.365L92.2413 150.769ZM152.084 144.841C152.084 148.146 148.316 151.548 141.747 154.176C134.496 157.076 124.813 158.673 114.48 158.673C108.042 158.71 101.62 158.032 95.3316 156.651C98.3932 153.584 100.947 150.049 102.898 146.178C106.661 146.629 110.448 146.856 114.239 146.858C125.072 146.858 135.528 145.158 143.244 142.072C146.967 140.582 149.937 138.826 152.084 136.881V144.841ZM152.084 128.993C152.084 132.298 148.316 135.7 141.747 138.328C134.496 141.228 124.813 142.825 114.469 142.825C111.171 142.841 107.875 142.671 104.596 142.315C106.002 138.602 106.852 134.701 107.12 130.739C109.526 130.918 111.987 131.008 114.354 131.008C125.187 131.008 135.528 129.308 143.245 126.222C146.968 124.733 149.938 122.977 152.085 121.032L152.084 128.993ZM152.084 113.146C152.084 116.45 148.316 119.853 141.747 122.48C134.496 125.381 124.812 126.978 114.475 126.978C112.056 126.981 109.616 126.887 107.196 126.701C107.073 122.616 106.331 118.572 104.996 114.71C108.078 115.009 111.236 115.162 114.252 115.162C125.085 115.162 135.528 113.462 143.243 110.376C146.967 108.886 149.937 107.13 152.083 105.185L152.084 113.146ZM141.747 106.633C134.496 109.534 124.812 111.131 114.469 111.131C110.719 111.149 106.972 110.926 103.25 110.464C98.9191 101.441 91.4279 94.32 82.1968 90.4515C89.0352 86.1969 101.332 83.4667 114.48 83.4667C124.813 83.4667 134.496 85.0641 141.747 87.9642C148.316 90.5919 152.084 93.9943 152.084 97.2989C152.084 100.604 148.316 104.006 141.747 106.633Z" fill="#8BB91F"/>
</svg>
