<svg width="50" height="50" viewBox="0 0 50 50" fill="none" xmlns="http://www.w3.org/2000/svg">
<circle cx="25" cy="25" r="25" fill="#3F6E5B"/>
<path d="M32.2037 28.25L29.6637 27.96C29.365 27.9249 29.0623 27.958 28.7782 28.0567C28.4942 28.1554 28.2362 28.3173 28.0237 28.53L26.1837 30.37C23.3449 28.9262 21.0375 26.6188 19.5937 23.78L21.4437 21.93C21.8737 21.5 22.0837 20.9 22.0137 20.29L21.7237 17.77C21.667 17.2822 21.4329 16.8322 21.0659 16.5058C20.699 16.1795 20.2248 15.9994 19.7337 16H18.0037C16.8737 16 15.9337 16.94 16.0037 18.07C16.5337 26.61 23.3637 33.43 31.8937 33.96C33.0237 34.03 33.9637 33.09 33.9637 31.96V30.23C33.9737 29.22 33.2137 28.37 32.2037 28.25Z" fill="white"/>
</svg>
