<svg width="183" height="152" viewBox="0 0 183 152" fill="none" xmlns="http://www.w3.org/2000/svg">
<path d="M167.745 81.9463C169.229 81.715 170.245 80.3242 170.014 78.8402C166.139 53.9519 144.75 34.7866 118.498 34.7866C89.6386 34.7866 66.3564 58.0626 66.3564 86.9274C66.3564 115.786 89.6324 139.07 118.498 139.07C145.973 139.07 167.768 118.161 170.377 92.1837C170.527 90.6892 169.437 89.3558 167.942 89.2056C166.456 89.0602 165.114 90.1456 164.964 91.6405C162.627 114.911 143.106 133.63 118.498 133.63C92.645 133.63 71.7963 112.786 71.7963 86.9274C71.7963 61.0748 92.6399 40.2265 118.498 40.2265C141.97 40.2265 161.162 57.346 164.639 79.6772C164.87 81.1612 166.262 82.1788 167.745 81.9463Z" fill="#8BB91F"/>
<path d="M121.218 52.8128V47.5256C121.218 46.0232 120 44.8057 118.498 44.8057C116.995 44.8057 115.778 46.0232 115.778 47.5256V52.8128C115.778 54.3153 116.995 55.5327 118.498 55.5327C120 55.5327 121.218 54.3153 121.218 52.8128Z" fill="#8BB91F"/>
<path d="M115.778 120.905V126.192C115.778 127.695 116.995 128.912 118.498 128.912C120 128.912 121.218 127.695 121.218 126.192V120.905C121.218 119.402 120 118.185 118.498 118.185C116.995 118.185 115.778 119.402 115.778 120.905Z" fill="#8BB91F"/>
<path d="M152.544 84.139C151.042 84.139 149.824 85.3564 149.824 86.8589C149.824 88.3614 151.042 89.5788 152.544 89.5788H157.831C159.334 89.5788 160.551 88.3614 160.551 86.8589C160.551 85.3564 159.334 84.139 157.831 84.139H152.544Z" fill="#8BB91F"/>
<path d="M79.1647 84.139C77.6623 84.139 76.4448 85.3564 76.4448 86.8589C76.4448 88.3614 77.6623 89.5788 79.1647 89.5788H84.4519C85.9544 89.5788 87.1718 88.3614 87.1718 86.8589C87.1718 85.3564 85.9544 84.139 84.4519 84.139H79.1647Z" fill="#8BB91F"/>
<path d="M144.388 116.595C145.451 117.657 147.172 117.657 148.234 116.595C149.297 115.533 149.297 113.811 148.234 112.749L144.495 109.01C143.433 107.948 141.711 107.948 140.649 109.01C139.586 110.072 139.586 111.794 140.649 112.856L144.388 116.595Z" fill="#8BB91F"/>
<path d="M96.3472 60.8616L92.6082 57.1226C91.5456 56.0607 89.8237 56.0607 88.7615 57.1226C87.6993 58.1852 87.6993 59.9071 88.7615 60.9693L92.5005 64.7083C93.5634 65.7705 95.285 65.7701 96.3472 64.7083C97.4094 63.6457 97.4094 61.9238 96.3472 60.8616Z" fill="#8BB91F"/>
<path d="M92.5005 109.01L88.7615 112.749C87.6993 113.811 87.6993 115.533 88.7615 116.595C89.8245 117.657 91.546 117.657 92.6082 116.595L96.3472 112.856C97.4094 111.794 97.4094 110.072 96.3472 109.01C95.285 107.948 93.5631 107.948 92.5005 109.01Z" fill="#8BB91F"/>
<path d="M148.234 57.1226C147.172 56.0607 145.45 56.0607 144.388 57.1226L140.649 60.8616C139.586 61.9242 139.586 63.646 140.649 64.7083C141.712 65.7705 143.433 65.7701 144.495 64.7083L148.234 60.9693C149.297 59.9071 149.297 58.1852 148.234 57.1226Z" fill="#8BB91F"/>
<path d="M127.779 23.0964V17.9703H132.598C135.07 17.9703 137.08 15.9597 137.08 13.4882V4.48242C137.08 2.01093 135.07 0 132.598 0H104.399C101.927 0 99.9163 2.01093 99.9163 4.48242V13.4882C99.9163 15.9597 101.927 17.9703 104.399 17.9703H109.218V23.0964C78.0333 27.6101 53.9961 54.5129 53.9961 86.9282C53.9961 89.631 54.1651 92.352 54.4984 95.0161C54.6855 96.5066 56.0455 97.562 57.5352 97.3774C59.0254 97.1906 60.0825 95.831 59.8965 94.3405C59.5908 91.9002 59.4359 89.4066 59.4359 86.9285C59.4359 52.4846 88.9405 25.2289 123.391 28.0706C153.667 30.5613 177.56 56.0005 177.56 86.9285C177.56 119.496 151.065 145.991 118.498 145.991C93.2735 145.991 70.8211 129.974 62.628 106.134C62.1399 104.714 60.5924 103.958 59.1719 104.446C57.7514 104.935 56.9953 106.482 57.4838 107.902C66.4316 133.938 90.9514 151.43 118.498 151.43C154.065 151.43 183 122.495 183 86.9285C183 54.5129 158.963 27.6101 127.779 23.0964ZM105.356 5.43947H131.641V12.5305C128.789 12.5305 108.439 12.5305 105.356 12.5305V5.43947ZM114.658 22.5409V17.9703H122.339V22.5409C119.676 22.3831 117.232 22.3976 114.824 22.5336C114.768 22.5365 114.713 22.5376 114.658 22.5409Z" fill="#8BB91F"/>
<path d="M126.112 89.6484H140.529C142.031 89.6484 143.249 88.431 143.249 86.9285C143.249 85.426 142.031 84.2086 140.529 84.2086H126.112C124.966 81.1064 121.941 78.825 118.498 78.825C114.106 78.825 110.395 82.5357 110.395 86.9282C110.395 91.3206 114.105 95.0317 118.498 95.0317C121.941 95.0313 124.965 92.7502 126.112 89.6484ZM118.498 89.5915C117.079 89.5915 115.834 88.3469 115.834 86.9278C115.834 85.5091 117.079 84.2644 118.498 84.2644C119.917 84.2644 121.161 85.5091 121.161 86.9278C121.161 88.3472 119.917 89.5915 118.498 89.5915Z" fill="#8BB91F"/>
<path d="M46.9664 84.5183L2.72028 84.5121C1.21816 84.5121 0.000362737 85.7296 8.10012e-08 87.2317C-0.000362575 88.7338 1.21707 89.9516 2.71955 89.952L46.9657 89.9581C48.4678 89.9581 49.6856 88.7407 49.686 87.2386C49.6863 85.7361 48.4685 84.5187 46.9664 84.5183Z" fill="#8BB91F"/>
<path d="M46.9691 65.2722L14.2877 65.2678C12.7855 65.2678 11.5677 66.4853 11.5674 67.9874C11.567 69.4899 12.7845 70.7073 14.2869 70.7077L46.9684 70.712H46.9687C48.4708 70.712 49.6883 69.4946 49.6886 67.9925C49.689 66.49 48.4712 65.2725 46.9691 65.2722Z" fill="#8BB91F"/>
<path d="M46.9636 103.764L14.2818 103.76C12.7797 103.76 11.5619 104.978 11.5615 106.48C11.5612 107.982 12.7786 109.2 14.2811 109.2L46.9629 109.204H46.9632C48.4654 109.204 49.6828 107.987 49.6831 106.485C49.6835 104.983 48.4661 103.765 46.9636 103.764Z" fill="#8BB91F"/>
</svg>
